PathFileType	4	(X/Y/Z)	C:\Users\chris\Documents\GitHub\baseballds\vids\pitch7_Sports2D\pitch7_Sports2D_m_person00.trc
DataRate	CameraRate	NumFrames	NumMarkers	Units	OrigDataRate	OrigDataStartFrame	OrigNumFrames
30	30	10	22	m	30	0	236
Frame#	Time	Hip			RHip			RKnee			RAnkle			RBigToe			RSmallToe			RHeel			LHip			LKnee			LAnkle			LBigToe			LSmallToe			LHeel			Neck			Head			Nose			RShoulder			RElbow			RWrist			LShoulder			LElbow			LWrist		
		X1	Y1	Z1	X2	Y2	Z2	X3	Y3	Z3	X4	Y4	Z4	X5	Y5	Z5	X6	Y6	Z6	X7	Y7	Z7	X8	Y8	Z8	X9	Y9	Z9	X10	Y10	Z10	X11	Y11	Z11	X12	Y12	Z12	X13	Y13	Z13	X14	Y14	Z14	X15	Y15	Z15	X16	Y16	Z16	X17	Y17	Z17	X18	Y18	Z18	X19	Y19	Z19	X20	Y20	Z20	X21	Y21	Z21	X22	Y22	Z22
0	0.0	1.5232826550009955	0.8947496978987041	0.0	1.415216458276927	0.8489078287048115	0.0	1.371378216272516	0.4186838875115371	0.0	1.3265840976259382	0.06252650581462363	0.0	1.338690851114967	-0.11016782314189745	0.0	1.2594249431363465	-0.09143706477392392	0.0	1.3372258595682502	0.0034008598335199735	0.0	1.6374344916294665	0.851775454509875	0.0	1.6824837450387635	0.422698673376719	0.0	1.7311966383444803	0.09244098352495186	0.0	1.6590364394413089	-0.0566480773692172	0.0	1.7379837499680293	-0.05069038418465547	0.0	1.7467128285300466	0.038316488243133065	0.0	1.5200002543348812	1.5317865172089216	0.0	1.5508092363091177	1.8235604304158346	0.0	1.6711725402208244	1.681893901220771	0.0	1.3043137669829081	1.4055381104912315	0.0	1.2641394401634678	1.0741335896482318	0.0	1.2480826990258562	0.7874884064946155	0.0	1.7337445610605968	1.425894544465204	0.0	1.811449537709813	1.1453972213554613	0.0	1.9182107851412642	0.9097219259199271	0.0
1	0.03333333333333333	1.525782977484971	0.8983363534590335	0.0	1.4152930179984335	0.8566323175587149	0.0	1.3730444342525707	0.4205836338451023	0.0	1.3193493142423938	0.061642973745606684	0.0	1.326520923551624	-0.10575858853210561	0.0	1.252862344261652	-0.09254417715020088	0.0	1.3332130977590526	0.0006161116903831552	0.0	1.6427816420091517	0.8553932002262136	0.0	1.6787111154137224	0.42844101765889964	0.0	1.7331856234122924	0.09300521210367584	0.0	1.6590512192960385	-0.05545664742282455	0.0	1.7386014278166622	-0.05302424425444624	0.0	1.744298496448542	0.038437624451245794	0.0	1.5184113616738968	1.5347351791758215	0.0	1.5565900535679134	1.8245980583530994	0.0	1.672350781476233	1.6836558331469487	0.0	1.3047908030043345	1.4044187164352944	0.0	1.2651962517610857	1.0736145176572507	0.0	1.2438447566830075	0.786106506799812	0.0	1.732043017349105	1.4348073025321795	0.0	1.8094828688532056	1.1516068872512726	0.0	1.915910213546369	0.9189281176982166	0.0
2	0.06666666666666667	1.5278412301242725	0.9018762132718613	0.0	1.4163265321922547	0.8605742451099034	0.0	1.3749497034552522	0.42315878206653784	0.0	1.3170590184982776	0.06497359376479053	0.0	1.3233871314562922	-0.10216270331680027	0.0	1.2507490860585502	-0.09142035411622136	0.0	1.3317442308154417	0.004677772019332216	0.0	1.6461374572203382	0.8579592957315841	0.0	1.6783456942860981	0.4333072103014961	0.0	1.733990885755895	0.09560457550826172	0.0	1.6595218821085782	-0.05339946418061909	0.0	1.7403876732924866	-0.05220899201901568	0.0	1.7421862737332587	0.04208787207035064	0.0	1.517236015616853	1.5363017887788566	0.0	1.5603342997962046	1.8255536572560396	0.0	1.672679424948579	1.6841511863664493	0.0	1.3051966801664674	1.4041715702457087	0.0	1.267953386968049	1.074495719270202	0.0	1.2446580921974544	0.7881882044135111	0.0	1.7301729685100573	1.439840175170755	0.0	1.8085417583082735	1.1565253385388679	0.0	1.9151470386462148	0.9253753900208237	0.0
3	0.1	1.5281784942420926	0.9059041446706361	0.0	1.4173495153311015	0.8630260768351694	0.0	1.376383144578788	0.4265436616053177	0.0	1.3196136226483965	0.0705861431803268	0.0	1.3280113872452168	-0.09866235895266902	0.0	1.2528945233666804	-0.08754849042786988	0.0	1.3338849173908316	0.012929051730994932	0.0	1.6464260041594796	0.8614364339410447	0.0	1.6809216439082182	0.43779951188508304	0.0	1.7339916842606773	0.09915148271305543	0.0	1.6611405277456983	-0.049437408053582134	0.0	1.7424874009731772	-0.047359641651395154	0.0	1.7419731942898058	0.0475496777505881	0.0	1.518115502657865	1.5369696769165935	0.0	1.562011495978565	1.8263959716578702	0.0	1.6713764555715949	1.684505014052165	0.0	1.30588007493169	1.404746391220682	0.0	1.2713210731161055	1.0770852938507935	0.0	1.2507830019478166	0.7923426849305621	0.0	1.7293134193053021	1.4412542378463364	0.0	1.8088354142014875	1.1592837410974168	0.0	1.9165328902107805	0.9275104626571148	0.0
4	0.13333333333333333	1.5271737471562008	0.9104777191046464	0.0	1.4179099417194374	0.8682039916076082	0.0	1.3776482808142596	0.43081167533507864	0.0	1.322588439085972	0.07481850174610842	0.0	1.3323589125024486	-0.09423169543206789	0.0	1.2559069987027984	-0.08232181935750323	0.0	1.3365064506966626	0.018932841745184253	0.0	1.6450559071074056	0.8669975974570889	0.0	1.683156080664349	0.44286244196298036	0.0	1.734424087469723	0.10174529221314901	0.0	1.6635585242483355	-0.04415840354839598	0.0	1.7433556817595737	-0.04127811378694017	0.0	1.7437460833469731	0.05087228345985231	0.0	1.520712835209544	1.5387819727298395	0.0	1.5633903357206316	1.8272154196228072	0.0	1.6681296842734004	1.6862992142931048	0.0	1.307696814110025	1.4066247927877102	0.0	1.274691704146846	1.0811055059047725	0.0	1.2577974144335953	0.7950438374174593	0.0	1.7298583246916814	1.4418895448485625	0.0	1.809675184335612	1.1610041919636287	0.0	1.917947607772853	0.9279265014901017	0.0
5	0.16666666666666666	1.5274753256472735	0.914250645865219	0.0	1.4190419310666789	0.8749973407289048	0.0	1.3798984846441633	0.43553447028002074	0.0	1.3235517431653467	0.0773887010621188	0.0	1.3328487857530293	-0.08950354707757334	0.0	1.2576702694547972	-0.0777283680776391	0.0	1.33644547689721	0.0206805959516972	0.0	1.644614919553788	0.8720678669933054	0.0	1.6832641192389144	0.44812415966197955	0.0	1.735854570408056	0.10349361879731289	0.0	1.6656480890210845	-0.03973081351808773	0.0	1.7435301906222938	-0.03738162563295041	0.0	1.745440484775177	0.05268738520256432	0.0	1.5224818356318919	1.5418159175119346	0.0	1.566029157404414	1.828107623213563	0.0	1.6633213401794897	1.6884139126866058	0.0	1.3110405572389316	1.410093376714831	0.0	1.2790652067549582	1.0856657373525234	0.0	1.2627175031572049	0.7959066187049827	0.0	1.731038565689614	1.4430354584043499	0.0	1.8106700014518038	1.162931093139394	0.0	1.9173822010631056	0.9300906749475226	0.0
6	0.2	1.5303593172553267	0.9157079042640499	0.0	1.4214258082957365	0.8778225964730096	0.0	1.3827990556808516	0.4393786307162768	0.0	1.32515006539093	0.08021234175674487	0.0	1.3337301420793273	-0.08540435078531151	0.0	1.259852877018177	-0.07399608936402863	0.0	1.3361829465139436	0.0216987482333876	0.0	1.6455359976982395	0.8736384894076363	0.0	1.6828687520405736	0.4517512046091028	0.0	1.7376677754523344	0.10618460060179576	0.0	1.6675012068827877	-0.03714919016586036	0.0	1.7453470985019877	-0.035425767487527786	0.0	1.7465733974119233	0.057003896910494595	0.0	1.5227928557163986	1.5432386074313285	0.0	1.569471265285809	1.8289137444385426	0.0	1.657502916568395	1.6881793817138675	0.0	1.3146278697795353	1.4129052026621864	0.0	1.2835563947338497	1.0891495068866652	0.0	1.2671424557293998	0.7970859515847168	0.0	1.7325699765720934	1.443653407779105	0.0	1.812387709345669	1.1639450693322206	0.0	1.9167800820122167	0.9322198493905541	0.0
7	0.23333333333333334	1.5337164770256817	0.9152949152186594	0.0	1.4245614805585753	0.8751938898396981	0.0	1.385161051222756	0.4414554012770156	0.0	1.3294418394354903	0.08381048807442135	0.0	1.3382766594557762	-0.08109806278296833	0.0	1.2642340847387779	-0.06979354430580521	0.0	1.3392223855838679	0.025261587538742834	0.0	1.6465239537365994	0.8719572254068111	0.0	1.6844226516069964	0.4526255540344239	0.0	1.73904987897662	0.11026028162800351	0.0	1.669694359200648	-0.03514614626755713	0.0	1.7486383184685599	-0.0330115998029226	0.0	1.7487450151456476	0.06343564803005773	0.0	1.5233549416085244	1.5415509159589158	0.0	1.5721984340777522	1.8293853882497653	0.0	1.6513866403556272	1.6851445940202447	0.0	1.3169003457130781	1.412995852181029	0.0	1.2862617600072248	1.0908637680657114	0.0	1.2727477438565598	0.7997517891120962	0.0	1.7343718253402398	1.4432725689514883	0.0	1.8148946097245602	1.1633662166425043	0.0	1.918869200114386	0.9309465704115178	0.0
8	0.26666666666666666	1.5353776432997206	0.9151200308973386	0.0	1.4273417573538985	0.8730519713124169	0.0	1.387226850861804	0.4429359593504748	0.0	1.333551128960452	0.08695286350586902	0.0	1.3428561734195485	-0.07593734174373655	0.0	1.268861525856715	-0.06533241152654266	0.0	1.343275701135212	0.029550109786108565	0.0	1.6477890483285824	0.8700885590624492	0.0	1.6880002918887584	0.4525191871305146	0.0	1.7403755416006361	0.11374333503236436	0.0	1.6716612408421063	-0.03208414827753637	0.0	1.75034889682729	-0.02949430995115129	0.0	1.751726332023231	0.06770322236766586	0.0	1.5254801259250486	1.5386206989680045	0.0	1.5732884699495857	1.8297520690256335	0.0	1.6455411318600432	1.6821714386889348	0.0	1.3183544913697693	1.411912144926798	0.0	1.2877291265537723	1.0918956076762236	0.0	1.2782623225551233	0.8032217959639512	0.0	1.7361245270669545	1.443127381057546	0.0	1.8169472736416674	1.1632717477320862	0.0	1.9221655818716061	0.9285084164759324	0.0
9	0.3	1.5359845994840646	0.9164084412521469	0.0	1.4288473623973776	0.8760477167156109	0.0	1.3902444757842045	0.44618436730352135	0.0	1.3346220513662723	0.0897630895567153	0.0	1.3440387244630236	-0.07132711597597077	0.0	1.2717549288925103	-0.062333128975873946	0.0	1.3440732561015567	0.03258798853341519	0.0	1.6503917897408042	0.8706711066381954	0.0	1.6917086321407409	0.4542776161796443	0.0	1.7423749426379909	0.11572459155699118	0.0	1.673005407588613	-0.028036712308295367	0.0	1.749901525241175	-0.025571188814099713	0.0	1.7532472859337198	0.06889713089058613	0.0	1.5292270185520198	1.5369095575218328	0.0	1.572239450982691	1.8305935316536432	0.0	1.6384976890798995	1.6823899866368701	0.0	1.320569046021912	1.4117232491130536	0.0	1.2897614014214522	1.0933099043030892	0.0	1.2823333324018624	0.8057747162333384	0.0	1.7377004360731583	1.4440422106674264	0.0	1.8177135480427293	1.1651905459381948	0.0	1.9235554206735803	0.9288603920965434	0.0
